<?xml version="1.0" encoding="iso-8859-1"?>
<!DOCTYPE svg PUBLIC "-//W3C//DTD SVG 1.1//EN" "http://www.w3.org/Graphics/SVG/1.1/DTD/svg11.dtd">
<svg 
 version="1.1" xmlns="http://www.w3.org/2000/svg" xmlns:xlink="http://www.w3.org/1999/xlink" x="0px" y="0px" width="512px"
	 height="512px" viewBox="0 0 512 512" style="enable-background:new 0 0 512 512;" xml:space="preserve"
><g id="afcae5a789ccd549f9c6e2a2f818b713"><g></g><path d="M423.68,168.709c-23.142-13.021-57.938-25.712-57.938-25.712c-2.584-0.942-5.309,0.452-6.057,3.099l-17.771,96.313
			c-0.292,2.734-2.781,4.972-5.531,4.972h-49.097c-2.75,0-4.464-2.185-3.809-4.856c0,0,12.531-51.097,34.09-72.655
			c3.073-3.073,3.073-8.06-0.005-11.133c-3.077-3.077-8.059-3.077-11.136-0.004c-24.627,24.627-38.76,83.784-38.76,83.784
			c-0.64,2.675-3.412,4.863-6.162,4.863h-48.128c-2.75,0-4.291-2.135-3.424-4.745c0,0,12.579-37.872,33.538-54.348
			c3.069-2.421,3.069-6.334,0-8.75c-3.077-2.42-8.067-2.42-11.137-0.004c-24.036,18.893-38.231,63.086-38.231,63.086
			c-0.841,2.618-3.779,4.76-6.529,4.76h-48.73c-2.75,0-3.988-2.009-2.751-4.465c0,0,12.497-24.811,32.412-36.209
			c3.073-1.759,3.073-4.607-0.004-6.367c-3.077-1.763-8.059-1.763-11.136-0.004c-22.988,13.153-37.197,42.544-37.197,42.544
			c-1.197,2.476-4.426,4.501-7.176,4.501H87.627c-2.75,0-6.464-1.708-8.254-3.796l-75.619-88.22
			c-1.79-2.088-3.254-1.546-3.254,1.204v96.458c0,2.75,0,7.25,0,10v96.458c0,2.75,1.464,3.292,3.254,1.204l75.619-88.221
			c1.79-2.088,5.504-3.796,8.254-3.796h26.35c2.75,0,6.096,1.965,7.437,4.366c0,0,14.792,26.511,35.972,38.629
			c3.077,1.759,8.067,1.759,11.141-0.004c3.077-1.759,3.073-4.607,0-6.367c-18.102-10.358-31.045-32.316-31.045-32.316
			c-1.396-2.369-0.289-4.308,2.461-4.308h48.162c2.75,0,5.762,2.117,6.693,4.705c0,0,14.837,41.23,37.551,59.091
			c3.077,2.416,8.067,2.416,11.145-0.004c3.077-2.416,3.077-6.333,0-8.75c-19.645-15.444-32.772-50.362-32.772-50.362
			c-0.968-2.573,0.49-4.68,3.24-4.68h47.832c2.75,0,5.572,2.176,6.271,4.836c0,0,14.764,56.166,38.364,79.761
			c3.077,3.073,8.067,3.073,11.141-0.004c3.077-3.073,3.073-8.063,0-11.137c-20.526-20.522-33.63-68.632-33.63-68.632
			c-0.723-2.653,0.936-4.824,3.686-4.824h48.764c2.75,0,5.234,2.237,5.521,4.973l16.504,92.248c0.721,2.653,3.428,4.067,6.018,3.141
			c0,0,33.061-11.83,54.002-22.538c63.53-32.482,90.744-84.329,90.744-84.329c1.278-2.435,1.119-6.327-0.354-8.649
			C508.821,253.516,472.418,196.13,423.68,168.709z M415.688,289.676c-17.641,0-31.938-14.297-31.938-31.938
			s14.297-31.938,31.938-31.938s31.938,14.297,31.938,31.938S433.328,289.676,415.688,289.676z"></path></g></svg>