<?xml version="1.0" encoding="iso-8859-1"?>
<!DOCTYPE svg PUBLIC "-//W3C//DTD SVG 1.1//EN" "http://www.w3.org/Graphics/SVG/1.1/DTD/svg11.dtd">
<svg 
 version="1.1" xmlns="http://www.w3.org/2000/svg" xmlns:xlink="http://www.w3.org/1999/xlink" x="0px" y="0px" width="512px"
	 height="512px" viewBox="0 0 512 512" style="enable-background:new 0 0 512 512;" xml:space="preserve"
><g id="afcae5a789ccd549f9c6e2a2f8184336"><g></g><path style="display: inline;" d="M469.241,43.749c0.669-0.339,1.328-0.699,1.927-1.138l20.465-14.921
		c5.494-4.007,4.437-7.476-2.365-7.725l-53.979-1.921c-6.797-0.245-8.104,3.149-2.904,7.535l19.353,16.333
		c0.698,0.599,1.477,1.098,2.295,1.547c-24.911,3.274-44.163,24.532-44.169,50.327c0.006,78.991-33.793,153.46-95.084,209.635
		c-62.553,57.338-146.079,88.916-235.215,88.911c-27.426,0.016-49.718,21.753-50.721,48.925c-0.264-0.614-0.529-1.223-0.873-1.792
		L14.73,417.878c-3.548-5.799-7.101-5.016-7.885,1.736L0.618,473.27c-0.789,6.751,2.485,8.323,7.276,3.498l17.83-17.98
		c1.866-1.881,3.139-4.356,3.808-7.006c4.107,23.948,24.916,42.188,50.032,42.188c114.626,0,222.55-41.069,303.896-115.624
		c4.571-4.191,9.018-8.453,13.359-12.79c74.095-74.095,114.676-169.923,114.681-271.769
		C511.494,68.65,493.225,47.831,469.241,43.749z M485.396,139.297c-6.433,26.114-20.116,45.191-30.565,42.617
		c-10.444-2.57,8.753-21.144,15.19-47.258c6.432-26.104-2.326-49.868,8.113-47.292C488.584,89.933,491.827,113.193,485.396,139.297z
		"></path></g></svg>