<?xml version="1.0" encoding="iso-8859-1"?>
<!DOCTYPE svg PUBLIC "-//W3C//DTD SVG 1.1//EN" "http://www.w3.org/Graphics/SVG/1.1/DTD/svg11.dtd">
<svg 
 version="1.1" xmlns="http://www.w3.org/2000/svg" xmlns:xlink="http://www.w3.org/1999/xlink" x="0px" y="0px" width="512px"
	 height="512px" viewBox="0 0 512 512" style="enable-background:new 0 0 512 512;" xml:space="preserve"
><g id="afcae5a789ccd549f9c6e2a2f817cd57"><g></g><path style="display: inline; fill-rule: evenodd; clip-rule: evenodd;" d="M432.883,216.692H79.116
		c-10.81,0-19.653,8.845-19.653,19.654S68.307,256,79.116,256h7.861l43.546,217.72c-7.086,2.979-12.1,9.992-12.1,18.126
		c0,10.81,8.845,19.654,19.654,19.654h235.844c10.81,0,19.653-8.845,19.653-19.654c0-8.134-5.013-15.146-12.1-18.126L425.021,256
		h7.861c10.81,0,19.654-8.844,19.654-19.653S443.692,216.692,432.883,216.692z M373.545,275.271l-35.528,177.651
		c-2.118,10.599-12.613,19.271-23.315,19.271s-17.72-8.672-15.601-19.271l35.53-177.651C336.75,264.672,347.235,256,357.938,256
		S375.664,264.672,373.545,275.271z M295.309,197.039H162.146c-5.137-22.188-7.578-48.609-12.415-67.391
		c-4.491-17.474-4.491-17.474-4.491-17.474c-2.855-7.013-8.659-18.663-12.897-25.88L123.368,71l36.114-21.197l8.975,15.29
		c4.237,7.22,11.577,17.968,16.313,23.88c0,0,0,0,13.06,12.441c14.349,13.669,36.89,29.047,53.895,44.686
		c21.719,19.984,27.139,26.897,27.139,26.897C283.784,179.281,290.971,189.811,295.309,197.039z M97.519,33.217
		c-4.153-7.27-2.909-15.942,2.764-19.273c5.674-3.332,14.963-8.783,20.637-12.115c5.674-3.328,13.85-0.185,18.172,6.986l1.267,2.104
		c4.323,7.17,7.501,13.93,7.063,15.021c-0.338,0.864,1.551,5.301,4.438,10.683l-36.283,21.3c-3.293-5.147-6.249-8.963-7.17-9.086
		c-1.159-0.146-5.513-6.219-9.666-13.489L97.519,33.217z"></path></g></svg>