<?xml version="1.0" encoding="iso-8859-1"?>
<!DOCTYPE svg PUBLIC "-//W3C//DTD SVG 1.1//EN" "http://www.w3.org/Graphics/SVG/1.1/DTD/svg11.dtd">
<svg 
 version="1.1" xmlns="http://www.w3.org/2000/svg" xmlns:xlink="http://www.w3.org/1999/xlink" x="0px" y="0px" width="512px"
	 height="512px" viewBox="0 0 512 512" style="enable-background:new 0 0 512 512;" xml:space="preserve"
><g id="afcae5a789ccd549f9c6e2a2f8178ebc"><g></g><path style="display: inline;" d="M72.151,471.139h308.821V511.5H72.151V471.139z M477.486,316.167
		c0,33.437-25.928,60.543-57.91,60.543c-15.836,0-30.184-6.665-40.637-17.445c-35.316,47.448-90.42,77.988-152.376,77.988
		c-100.081,0-182.366-79.652-192.05-181.629h384.102l-0.008,0.051c0.332-0.004,0.646-0.051,0.969-0.051
		C451.559,255.624,477.486,282.73,477.486,316.167z M450.463,316.167c0-17.805-13.857-32.29-30.887-32.29
		c-1.971,0-3.893,0.213-5.762,0.584c-4.273,17.895-10.809,34.844-19.307,50.487c5.613,8.163,14.75,13.508,25.068,13.508
		C436.605,348.456,450.463,333.971,450.463,316.167z M321.107,133.841c2.318,58.619-29.877,101.603-29.877,101.603
		s-19.328-23.008-19.723-56.109c-0.623-52.068,14.34-72.348,18.84-98.973c4.107-24.269-2.041-33.023-2.041-33.023
		S318.916,78.374,321.107,133.841z M240.39,87.002c2.318,58.62-29.877,101.603-29.877,101.603s-19.33-23.007-19.724-56.108
		c-0.623-52.068,14.336-72.348,18.841-98.974C213.737,9.255,207.584,0.5,207.584,0.5S238.199,31.536,240.39,87.002z"></path></g></svg>