<?xml version="1.0" encoding="iso-8859-1"?>
<!DOCTYPE svg PUBLIC "-//W3C//DTD SVG 1.1//EN" "http://www.w3.org/Graphics/SVG/1.1/DTD/svg11.dtd">
<svg 
 version="1.1" xmlns="http://www.w3.org/2000/svg" xmlns:xlink="http://www.w3.org/1999/xlink" x="0px" y="0px" width="512px"
	 height="512px" viewBox="0 0 512 512" style="enable-background:new 0 0 512 512;" xml:space="preserve"
><g id="afcae5a789ccd549f9c6e2a2f818059b"><g></g><path style="display: inline;" d="M432.593,301.158c-0.004-49.742-9.812-101.721-26.74-148.249l0.016-0.007l-0.537-1.459
		l-1.102-2.986l-0.031,0.012c-2.722-7.205-5.608-14.265-8.656-21.163l0.039-0.012l-0.664-1.455
		c-0.004-0.008-0.004-0.012-0.008-0.019l-1.286-2.868l-0.031,0.008c-15.976-34.962-36.148-65.357-59.36-87.183
		C310.885,13.828,284.31,0.5,256,0.5c-25.85-0.008-50.274,11.121-72.082,29.765c-21.827,18.648-41.15,44.847-57.111,75.457
		l-4.314,8.28l0.199-0.073c-4.748,9.7-9.182,19.772-13.235,30.179l-3.57,9.155l0.203-0.115
		c-16.886,46.471-26.678,98.346-26.682,148.011c0,19.761,1.597,38.071,4.533,55.038l0.035,0.181l-0.023,0.011l0.353,1.912
		l0.545,3.147l0.081-0.054c1.325,6.879,2.845,13.569,4.637,19.984l-0.035,0.026l0.764,2.614c0.008,0.023,0.015,0.042,0.019,0.065
		l0.576,2.062l0.054-0.039c12.514,41.558,34.679,72.861,63.092,93.725C182.92,501.059,218.158,511.5,256,511.5
		c40.401,0,77.813-11.911,107.701-36.122c29.898-24.206,52.144-60.673,62.442-109.217l0.319-1.513l0.042-0.022l0.322-1.608
		c0.02-0.111,0.03-0.23,0.054-0.346l0.898-4.227l-0.2,0.115c1.505-8.311,2.733-16.897,3.563-25.864l0.085-0.956l0.015-0.004
		l0.139-1.674l0.372-4.046l-0.115,0.069C432.217,318.028,432.593,309.771,432.593,301.158z M206.34,153.643
		c-16.929,51.564-10.027,100.139-30.652,93.367c-20.629-6.771-23.623-54.063-6.695-105.628
		c16.929-51.564,47.373-87.878,67.998-81.106C257.62,67.047,223.268,102.078,206.34,153.643z"></path></g></svg>