<?xml version="1.0" encoding="iso-8859-1"?>
<!DOCTYPE svg PUBLIC "-//W3C//DTD SVG 1.1//EN" "http://www.w3.org/Graphics/SVG/1.1/DTD/svg11.dtd">
<svg 
 version="1.1" xmlns="http://www.w3.org/2000/svg" xmlns:xlink="http://www.w3.org/1999/xlink" x="0px" y="0px" width="512px"
	 height="512px" viewBox="0 0 512 512" style="enable-background:new 0 0 512 512;" xml:space="preserve"
><g id="afcae5a789ccd549f9c6e2a2f81830b2"><g></g><path style="display: inline;" d="M256,22.716c128.839,0,233.28,104.45,233.28,233.284S384.839,489.284,256,489.284
		S22.72,384.834,22.72,256S127.161,22.716,256,22.716 M256,0.5C115.117,0.5,0.5,115.117,0.5,256
		c0,140.884,114.617,255.5,255.5,255.5c140.884,0,255.5-114.616,255.5-255.5C511.5,115.117,396.884,0.5,256,0.5L256,0.5z
		 M257.396,221.608c-0.526,12.766,0.58,23.672,2.472,24.234c1.893,0.563,12.426-3.811,21.073-13.211l111.617-121.326
		c8.647-9.399,7.005-22.859-3.647-29.9L287.832,39.251c-12.435-2.921-23.05,5.131-23.576,17.897L257.396,221.608z M266.728,253.641
		c0.168,0.98,10.748,1.343,23.514,0.812l164.46-6.855c12.766-0.531,20.886-11.155,18.046-23.613l-39.187-97.124
		c-6.854-10.779-20.16-12.521-29.561-3.87L282.651,234.628C273.247,243.279,266.561,252.661,266.728,253.641z M221.702,254.453
		c12.767,0.531,23.654-0.549,24.193-2.4c0.54-1.851-3.941-12.367-13.342-21.018L111.255,119.444c-9.4-8.646-22.851-7-29.887,3.661
		L39.341,224.017c-2.922,12.439,5.135,23.05,17.901,23.581L221.702,254.453z M234.913,229.098
		c8.646,9.4,16.422,16.803,17.275,16.445c0.853-0.358,2.885-11.169,2.358-23.935l-6.859-164.46
		c-0.525-12.766-11.155-20.887-23.612-18.051l-96.956,39.069c-10.783,6.851-12.525,20.147-3.878,29.547L234.913,229.098z
		 M290.241,257.307c-12.766-0.531-23.346-0.168-23.514,0.812c-0.167,0.98,6.52,10.361,15.924,19.009L404,388.772
		c9.4,8.646,22.706,6.904,29.561-3.875l39.187-97.123c2.84-12.458-5.28-23.083-18.046-23.613L290.241,257.307z M230.73,279.104
		c9.399-8.651,16.458-16.699,15.691-17.888s-11.953-4.441-24.72-3.91l-164.459,6.854c-12.766,0.53-20.855,11.151-17.974,23.595
		l40.589,99.033c6.945,10.721,20.319,12.417,29.724,3.771L230.73,279.104z M280.941,279.128c-8.647-9.4-16.423-16.342-17.271-15.421
		c-0.848,0.917-3.252,12.948-2.722,25.714l6.873,165.027c0.535,12.766,11.114,20.7,23.518,17.638l97.618-41.659
		c10.634-7.082,12.253-20.573,3.602-29.973L280.941,279.128z M258.141,289.693c0.535-12.767,0.05-22.982-1.071-22.706
		c0,0,0,0-1.098,0c-2.903,0-2.903,0-2.903,0c-2.527-1.629-11.673,4.736-20.324,14.137L121.29,402.269
		c-8.647,9.399-6.932,22.741,3.82,29.646l102.5,41.028c12.479,2.731,23.127-5.476,23.658-18.241L258.141,289.693z"></path></g></svg>