<?xml version="1.0" encoding="iso-8859-1"?>
<!DOCTYPE svg PUBLIC "-//W3C//DTD SVG 1.1//EN" "http://www.w3.org/Graphics/SVG/1.1/DTD/svg11.dtd">
<svg 
 version="1.1" xmlns="http://www.w3.org/2000/svg" xmlns:xlink="http://www.w3.org/1999/xlink" x="0px" y="0px" width="512px"
	 height="512px" viewBox="0 0 512 512" style="enable-background:new 0 0 512 512;" xml:space="preserve"
><g id="afcae5a789ccd549f9c6e2a2f8181614"><g></g><path d="M398.206,121.153c-2.329-1.462-3.888-4.882-3.464-7.599c0,0,0.618-3.963,0.618-8.533
			C395.36,47.296,322.569,0.5,232.771,0.5c-89.795,0-162.59,46.796-162.59,104.521c0,6.587,1.728,14.397,1.728,14.397
			c0.594,2.685-0.736,6.21-2.956,7.834c0,0-68.452,50.078-68.452,93.908c0,50.577,88.577,99.997,88.577,99.997
			c2.401,1.34,4.351,3.062,4.333,3.825c0,0,0,0,0,0.699c0,102.628,57.197,185.819,127.75,185.819
			c48.899,0,110.118-94.485,110.118-94.485c1.495-2.308,4.911-3.688,7.59-3.067c0,0,20.039,4.643,33.267,4.643
			c76.971,0,139.365-67.593,139.365-150.975C511.5,192.279,398.206,121.153,398.206,121.153z M256,339.229
			c-58.798,0-106.458-47.66-106.458-106.458c0-58.793,47.661-106.454,106.458-106.454c58.793,0,106.458,47.661,106.458,106.454
			C362.458,291.568,314.793,339.229,256,339.229z M202.646,222.063c-9.706,29.567-5.747,57.421-17.574,53.541
			c-11.827-3.884-13.549-31.002-3.839-60.569c9.706-29.571,27.164-50.393,38.991-46.513
			C232.051,172.41,212.353,192.495,202.646,222.063z"></path></g></svg>